<mxfile host="app.diagrams.net" agent="Mozilla/5.0 (Windows NT 10.0; Win64; x64) AppleWebKit/537.36 (KHTML, like Gecko) Chrome/130.0.0.0 Safari/537.36" version="24.8.3">
  <diagram name="Page-1" id="c7488fd3-1785-93aa-aadb-54a6760d102a">
    <mxGraphModel dx="1165" dy="613" grid="1" gridSize="10" guides="1" tooltips="1" connect="1" arrows="1" fold="1" page="1" pageScale="1" pageWidth="1100" pageHeight="850" background="none" math="0" shadow="0">
      <root>
        <mxCell id="0" />
        <mxCell id="1" parent="0" />
        <mxCell id="2b4e8129b02d487f-1" value="Pool" style="swimlane;html=1;childLayout=stackLayout;horizontal=1;startSize=20;horizontalStack=0;rounded=0;shadow=0;labelBackgroundColor=none;strokeWidth=1;fontFamily=Verdana;fontSize=8;align=center;" parent="1" vertex="1">
          <mxGeometry x="20" y="20" width="990" height="650" as="geometry" />
        </mxCell>
        <mxCell id="2b4e8129b02d487f-2" value="Solicitante" style="swimlane;html=1;startSize=20;horizontal=0;" parent="2b4e8129b02d487f-1" vertex="1">
          <mxGeometry y="20" width="990" height="150" as="geometry" />
        </mxCell>
        <mxCell id="LP5cMxnmR4-kyR7MELWS-5" value="" style="edgeStyle=orthogonalEdgeStyle;rounded=0;orthogonalLoop=1;jettySize=auto;html=1;" parent="2b4e8129b02d487f-2" source="LP5cMxnmR4-kyR7MELWS-3" target="LP5cMxnmR4-kyR7MELWS-4" edge="1">
          <mxGeometry relative="1" as="geometry" />
        </mxCell>
        <mxCell id="LP5cMxnmR4-kyR7MELWS-3" value="" style="ellipse;whiteSpace=wrap;html=1;aspect=fixed;" parent="2b4e8129b02d487f-2" vertex="1">
          <mxGeometry x="50" y="50" width="35" height="35" as="geometry" />
        </mxCell>
        <mxCell id="LP5cMxnmR4-kyR7MELWS-4" value="Solicitação de compra" style="whiteSpace=wrap;html=1;" parent="2b4e8129b02d487f-2" vertex="1">
          <mxGeometry x="122.5" y="51.25" width="67.5" height="32.5" as="geometry" />
        </mxCell>
        <mxCell id="ZCx5LJv5tRnF_jyQC0q8-14" value="Entrega do produto" style="ellipse;whiteSpace=wrap;html=1;aspect=fixed;" vertex="1" parent="2b4e8129b02d487f-2">
          <mxGeometry x="840" y="20" width="70" height="70" as="geometry" />
        </mxCell>
        <mxCell id="LP5cMxnmR4-kyR7MELWS-6" value="Setor de Compras" style="swimlane;html=1;startSize=20;horizontal=0;" parent="2b4e8129b02d487f-1" vertex="1">
          <mxGeometry y="170" width="990" height="255" as="geometry" />
        </mxCell>
        <mxCell id="LP5cMxnmR4-kyR7MELWS-7" value="Contatar fornecedores" style="whiteSpace=wrap;html=1;" parent="LP5cMxnmR4-kyR7MELWS-6" vertex="1">
          <mxGeometry x="200" y="45" width="120" height="60" as="geometry" />
        </mxCell>
        <mxCell id="LP5cMxnmR4-kyR7MELWS-36" value="Emitir Ordem de Compra" style="whiteSpace=wrap;html=1;" parent="LP5cMxnmR4-kyR7MELWS-6" vertex="1">
          <mxGeometry x="435" y="45" width="120" height="60" as="geometry" />
        </mxCell>
        <mxCell id="LP5cMxnmR4-kyR7MELWS-8" value="" style="edgeStyle=orthogonalEdgeStyle;rounded=0;orthogonalLoop=1;jettySize=auto;html=1;" parent="2b4e8129b02d487f-1" source="LP5cMxnmR4-kyR7MELWS-4" target="LP5cMxnmR4-kyR7MELWS-7" edge="1">
          <mxGeometry relative="1" as="geometry" />
        </mxCell>
        <mxCell id="LP5cMxnmR4-kyR7MELWS-21" value="" style="edgeStyle=orthogonalEdgeStyle;rounded=0;orthogonalLoop=1;jettySize=auto;html=1;" parent="2b4e8129b02d487f-1" source="LP5cMxnmR4-kyR7MELWS-7" target="LP5cMxnmR4-kyR7MELWS-20" edge="1">
          <mxGeometry relative="1" as="geometry" />
        </mxCell>
        <mxCell id="2b4e8129b02d487f-4" value="Fornecedor" style="swimlane;html=1;startSize=20;horizontal=0;" parent="2b4e8129b02d487f-1" vertex="1">
          <mxGeometry y="425" width="990" height="225" as="geometry" />
        </mxCell>
        <mxCell id="LP5cMxnmR4-kyR7MELWS-23" value="" style="edgeStyle=orthogonalEdgeStyle;rounded=0;orthogonalLoop=1;jettySize=auto;html=1;" parent="2b4e8129b02d487f-4" source="LP5cMxnmR4-kyR7MELWS-20" target="LP5cMxnmR4-kyR7MELWS-22" edge="1">
          <mxGeometry relative="1" as="geometry" />
        </mxCell>
        <mxCell id="LP5cMxnmR4-kyR7MELWS-26" style="edgeStyle=orthogonalEdgeStyle;rounded=0;orthogonalLoop=1;jettySize=auto;html=1;exitX=1;exitY=0.5;exitDx=0;exitDy=0;entryX=0;entryY=0.5;entryDx=0;entryDy=0;" parent="2b4e8129b02d487f-4" source="LP5cMxnmR4-kyR7MELWS-20" target="LP5cMxnmR4-kyR7MELWS-24" edge="1">
          <mxGeometry relative="1" as="geometry">
            <mxPoint x="300" y="45" as="targetPoint" />
            <Array as="points">
              <mxPoint x="301" y="123" />
              <mxPoint x="301" y="49" />
            </Array>
          </mxGeometry>
        </mxCell>
        <mxCell id="LP5cMxnmR4-kyR7MELWS-27" style="edgeStyle=orthogonalEdgeStyle;rounded=0;orthogonalLoop=1;jettySize=auto;html=1;entryX=0;entryY=0.5;entryDx=0;entryDy=0;" parent="2b4e8129b02d487f-4" source="LP5cMxnmR4-kyR7MELWS-20" target="LP5cMxnmR4-kyR7MELWS-25" edge="1">
          <mxGeometry relative="1" as="geometry">
            <mxPoint x="300" y="195" as="targetPoint" />
            <Array as="points">
              <mxPoint x="300" y="123" />
              <mxPoint x="300" y="189" />
            </Array>
          </mxGeometry>
        </mxCell>
        <mxCell id="LP5cMxnmR4-kyR7MELWS-20" value="" style="rhombus;whiteSpace=wrap;html=1;" parent="2b4e8129b02d487f-4" vertex="1">
          <mxGeometry x="240" y="105" width="40" height="35" as="geometry" />
        </mxCell>
        <mxCell id="LP5cMxnmR4-kyR7MELWS-22" value="Fornecedor B" style="whiteSpace=wrap;html=1;" parent="2b4e8129b02d487f-4" vertex="1">
          <mxGeometry x="330" y="98.75" width="90" height="47.5" as="geometry" />
        </mxCell>
        <mxCell id="LP5cMxnmR4-kyR7MELWS-32" style="edgeStyle=orthogonalEdgeStyle;rounded=0;orthogonalLoop=1;jettySize=auto;html=1;exitX=1;exitY=0.5;exitDx=0;exitDy=0;entryX=0.5;entryY=1;entryDx=0;entryDy=0;" parent="2b4e8129b02d487f-4" source="LP5cMxnmR4-kyR7MELWS-25" target="LP5cMxnmR4-kyR7MELWS-34" edge="1">
          <mxGeometry relative="1" as="geometry">
            <mxPoint x="510" y="189" as="targetPoint" />
          </mxGeometry>
        </mxCell>
        <mxCell id="LP5cMxnmR4-kyR7MELWS-25" value="Fornecedor C" style="whiteSpace=wrap;html=1;" parent="2b4e8129b02d487f-4" vertex="1">
          <mxGeometry x="330" y="165" width="90" height="47.5" as="geometry" />
        </mxCell>
        <mxCell id="LP5cMxnmR4-kyR7MELWS-29" style="edgeStyle=orthogonalEdgeStyle;rounded=0;orthogonalLoop=1;jettySize=auto;html=1;entryX=0.5;entryY=0;entryDx=0;entryDy=0;" parent="2b4e8129b02d487f-4" source="LP5cMxnmR4-kyR7MELWS-24" target="LP5cMxnmR4-kyR7MELWS-34" edge="1">
          <mxGeometry relative="1" as="geometry">
            <mxPoint x="510" y="48.75" as="targetPoint" />
          </mxGeometry>
        </mxCell>
        <mxCell id="LP5cMxnmR4-kyR7MELWS-24" value="Fornecedor A" style="whiteSpace=wrap;html=1;" parent="2b4e8129b02d487f-4" vertex="1">
          <mxGeometry x="330" y="25" width="90" height="47.5" as="geometry" />
        </mxCell>
        <mxCell id="LP5cMxnmR4-kyR7MELWS-28" value="" style="shape=sumEllipse;perimeter=ellipsePerimeter;whiteSpace=wrap;html=1;backgroundOutline=1;" parent="2b4e8129b02d487f-4" vertex="1">
          <mxGeometry x="245" y="109.5" width="30" height="26" as="geometry" />
        </mxCell>
        <mxCell id="LP5cMxnmR4-kyR7MELWS-38" value="" style="edgeStyle=orthogonalEdgeStyle;rounded=0;orthogonalLoop=1;jettySize=auto;html=1;" parent="2b4e8129b02d487f-4" source="LP5cMxnmR4-kyR7MELWS-22" target="LP5cMxnmR4-kyR7MELWS-34" edge="1">
          <mxGeometry relative="1" as="geometry">
            <mxPoint x="530" y="567.5" as="targetPoint" />
            <mxPoint x="440" y="568" as="sourcePoint" />
          </mxGeometry>
        </mxCell>
        <mxCell id="LP5cMxnmR4-kyR7MELWS-34" value="" style="rhombus;whiteSpace=wrap;html=1;" parent="2b4e8129b02d487f-4" vertex="1">
          <mxGeometry x="450" y="105" width="40" height="35" as="geometry" />
        </mxCell>
        <mxCell id="LP5cMxnmR4-kyR7MELWS-35" value="" style="shape=sumEllipse;perimeter=ellipsePerimeter;whiteSpace=wrap;html=1;backgroundOutline=1;" parent="2b4e8129b02d487f-4" vertex="1">
          <mxGeometry x="455" y="109.5" width="30" height="26" as="geometry" />
        </mxCell>
        <mxCell id="r42TylRSD4KyaHKUJeAF-1" value="Envia Mercadoria" style="whiteSpace=wrap;html=1;" parent="2b4e8129b02d487f-4" vertex="1">
          <mxGeometry x="570" y="92.5" width="120" height="60" as="geometry" />
        </mxCell>
        <mxCell id="r42TylRSD4KyaHKUJeAF-16" style="edgeStyle=orthogonalEdgeStyle;rounded=0;orthogonalLoop=1;jettySize=auto;html=1;entryX=0.75;entryY=0;entryDx=0;entryDy=0;" parent="2b4e8129b02d487f-4" source="r42TylRSD4KyaHKUJeAF-14" target="r42TylRSD4KyaHKUJeAF-1" edge="1">
          <mxGeometry relative="1" as="geometry">
            <Array as="points">
              <mxPoint x="770" y="55" />
              <mxPoint x="660" y="55" />
            </Array>
          </mxGeometry>
        </mxCell>
        <mxCell id="r42TylRSD4KyaHKUJeAF-14" value="Mercadoria Devolvida" style="whiteSpace=wrap;html=1;" parent="2b4e8129b02d487f-4" vertex="1">
          <mxGeometry x="700" y="92.5" width="120" height="60" as="geometry" />
        </mxCell>
        <mxCell id="LP5cMxnmR4-kyR7MELWS-37" value="" style="edgeStyle=orthogonalEdgeStyle;rounded=0;orthogonalLoop=1;jettySize=auto;html=1;" parent="2b4e8129b02d487f-1" source="LP5cMxnmR4-kyR7MELWS-35" target="LP5cMxnmR4-kyR7MELWS-36" edge="1">
          <mxGeometry relative="1" as="geometry">
            <Array as="points">
              <mxPoint x="500" y="548" />
            </Array>
          </mxGeometry>
        </mxCell>
        <mxCell id="r42TylRSD4KyaHKUJeAF-2" value="" style="edgeStyle=orthogonalEdgeStyle;rounded=0;orthogonalLoop=1;jettySize=auto;html=1;" parent="2b4e8129b02d487f-1" source="LP5cMxnmR4-kyR7MELWS-36" target="r42TylRSD4KyaHKUJeAF-1" edge="1">
          <mxGeometry relative="1" as="geometry" />
        </mxCell>
        <mxCell id="r42TylRSD4KyaHKUJeAF-3" value="Recepção" style="swimlane;html=1;startSize=20;horizontal=0;" parent="1" vertex="1">
          <mxGeometry x="20" y="670" width="990" height="150" as="geometry" />
        </mxCell>
        <mxCell id="r42TylRSD4KyaHKUJeAF-12" value="" style="edgeStyle=orthogonalEdgeStyle;rounded=0;orthogonalLoop=1;jettySize=auto;html=1;" parent="r42TylRSD4KyaHKUJeAF-3" source="r42TylRSD4KyaHKUJeAF-7" target="r42TylRSD4KyaHKUJeAF-11" edge="1">
          <mxGeometry relative="1" as="geometry" />
        </mxCell>
        <mxCell id="r42TylRSD4KyaHKUJeAF-7" value="Recebe e confere a mercadoria" style="whiteSpace=wrap;html=1;" parent="r42TylRSD4KyaHKUJeAF-3" vertex="1">
          <mxGeometry x="570" y="45" width="120" height="60" as="geometry" />
        </mxCell>
        <mxCell id="r42TylRSD4KyaHKUJeAF-11" value="" style="rhombus;whiteSpace=wrap;html=1;" parent="r42TylRSD4KyaHKUJeAF-3" vertex="1">
          <mxGeometry x="740" y="57.5" width="40" height="35" as="geometry" />
        </mxCell>
        <mxCell id="r42TylRSD4KyaHKUJeAF-13" value="" style="shape=sumEllipse;perimeter=ellipsePerimeter;whiteSpace=wrap;html=1;backgroundOutline=1;" parent="r42TylRSD4KyaHKUJeAF-3" vertex="1">
          <mxGeometry x="745" y="62" width="30" height="26" as="geometry" />
        </mxCell>
        <mxCell id="r42TylRSD4KyaHKUJeAF-8" value="" style="edgeStyle=orthogonalEdgeStyle;rounded=0;orthogonalLoop=1;jettySize=auto;html=1;" parent="1" source="r42TylRSD4KyaHKUJeAF-1" target="r42TylRSD4KyaHKUJeAF-7" edge="1">
          <mxGeometry relative="1" as="geometry" />
        </mxCell>
        <mxCell id="r42TylRSD4KyaHKUJeAF-9" value="Financeiro" style="swimlane;html=1;startSize=20;horizontal=0;" parent="1" vertex="1">
          <mxGeometry x="20" y="820" width="990" height="150" as="geometry" />
        </mxCell>
        <mxCell id="ZCx5LJv5tRnF_jyQC0q8-4" value="" style="edgeStyle=orthogonalEdgeStyle;rounded=0;orthogonalLoop=1;jettySize=auto;html=1;" edge="1" parent="r42TylRSD4KyaHKUJeAF-9" source="ZCx5LJv5tRnF_jyQC0q8-2">
          <mxGeometry relative="1" as="geometry">
            <mxPoint x="530" y="70" as="targetPoint" />
          </mxGeometry>
        </mxCell>
        <mxCell id="ZCx5LJv5tRnF_jyQC0q8-2" value="Pagamento da fatura" style="rounded=0;whiteSpace=wrap;html=1;" vertex="1" parent="r42TylRSD4KyaHKUJeAF-9">
          <mxGeometry x="330" y="40" width="120" height="60" as="geometry" />
        </mxCell>
        <mxCell id="ZCx5LJv5tRnF_jyQC0q8-5" value="" style="rhombus;whiteSpace=wrap;html=1;" vertex="1" parent="r42TylRSD4KyaHKUJeAF-9">
          <mxGeometry x="530" y="52.5" width="40" height="35" as="geometry" />
        </mxCell>
        <mxCell id="ZCx5LJv5tRnF_jyQC0q8-10" style="edgeStyle=orthogonalEdgeStyle;rounded=0;orthogonalLoop=1;jettySize=auto;html=1;" edge="1" parent="r42TylRSD4KyaHKUJeAF-9" source="ZCx5LJv5tRnF_jyQC0q8-6">
          <mxGeometry relative="1" as="geometry">
            <mxPoint x="871" y="-690" as="targetPoint" />
            <Array as="points">
              <mxPoint x="550" y="120" />
              <mxPoint x="871" y="120" />
              <mxPoint x="871" y="-200" />
            </Array>
          </mxGeometry>
        </mxCell>
        <mxCell id="ZCx5LJv5tRnF_jyQC0q8-12" value="Pagamento efetuado com sucesso" style="edgeLabel;html=1;align=center;verticalAlign=middle;resizable=0;points=[];" vertex="1" connectable="0" parent="ZCx5LJv5tRnF_jyQC0q8-10">
          <mxGeometry x="-0.7264" y="-2" relative="1" as="geometry">
            <mxPoint as="offset" />
          </mxGeometry>
        </mxCell>
        <mxCell id="ZCx5LJv5tRnF_jyQC0q8-6" value="" style="shape=sumEllipse;perimeter=ellipsePerimeter;whiteSpace=wrap;html=1;backgroundOutline=1;" vertex="1" parent="r42TylRSD4KyaHKUJeAF-9">
          <mxGeometry x="535" y="57" width="30" height="26" as="geometry" />
        </mxCell>
        <mxCell id="r42TylRSD4KyaHKUJeAF-15" value="" style="edgeStyle=orthogonalEdgeStyle;rounded=0;orthogonalLoop=1;jettySize=auto;html=1;" parent="1" source="r42TylRSD4KyaHKUJeAF-11" target="r42TylRSD4KyaHKUJeAF-14" edge="1">
          <mxGeometry relative="1" as="geometry" />
        </mxCell>
        <mxCell id="r42TylRSD4KyaHKUJeAF-17" value="Mercadoria em desacordo" style="edgeLabel;html=1;align=center;verticalAlign=middle;resizable=0;points=[];rotation=-90;" parent="r42TylRSD4KyaHKUJeAF-15" vertex="1" connectable="0">
          <mxGeometry x="-0.2846" relative="1" as="geometry">
            <mxPoint x="-15" y="-10" as="offset" />
          </mxGeometry>
        </mxCell>
        <mxCell id="ZCx5LJv5tRnF_jyQC0q8-8" style="edgeStyle=orthogonalEdgeStyle;rounded=0;orthogonalLoop=1;jettySize=auto;html=1;entryX=0.75;entryY=1;entryDx=0;entryDy=0;" edge="1" parent="1" source="ZCx5LJv5tRnF_jyQC0q8-6" target="r42TylRSD4KyaHKUJeAF-14">
          <mxGeometry relative="1" as="geometry">
            <mxPoint x="810" y="600" as="targetPoint" />
          </mxGeometry>
        </mxCell>
        <mxCell id="ZCx5LJv5tRnF_jyQC0q8-9" value="Erro no pagamento" style="edgeLabel;html=1;align=center;verticalAlign=middle;resizable=0;points=[];" vertex="1" connectable="0" parent="ZCx5LJv5tRnF_jyQC0q8-8">
          <mxGeometry x="-0.7964" y="-1" relative="1" as="geometry">
            <mxPoint x="63" y="-1" as="offset" />
          </mxGeometry>
        </mxCell>
        <mxCell id="ZCx5LJv5tRnF_jyQC0q8-18" style="edgeStyle=orthogonalEdgeStyle;rounded=0;orthogonalLoop=1;jettySize=auto;html=1;entryX=0.64;entryY=-0.054;entryDx=0;entryDy=0;entryPerimeter=0;" edge="1" parent="1" source="r42TylRSD4KyaHKUJeAF-11" target="ZCx5LJv5tRnF_jyQC0q8-2">
          <mxGeometry relative="1" as="geometry">
            <mxPoint x="780" y="850" as="targetPoint" />
            <Array as="points">
              <mxPoint x="780" y="840" />
              <mxPoint x="427" y="840" />
            </Array>
          </mxGeometry>
        </mxCell>
        <mxCell id="ZCx5LJv5tRnF_jyQC0q8-19" value="Mercadoria em alinho" style="edgeLabel;html=1;align=center;verticalAlign=middle;resizable=0;points=[];" vertex="1" connectable="0" parent="ZCx5LJv5tRnF_jyQC0q8-18">
          <mxGeometry x="0.2249" y="5" relative="1" as="geometry">
            <mxPoint as="offset" />
          </mxGeometry>
        </mxCell>
      </root>
    </mxGraphModel>
  </diagram>
</mxfile>
